<svg id="Layer_1" data-name="Layer 1" xmlns="http://www.w3.org/2000/svg" xmlns:xlink="http://www.w3.org/1999/xlink" viewBox="0 0 199.47 199.47"><defs><style>.cls-1{fill:#fff;}.cls-2{fill:url(#linear-gradient);}.cls-3{fill:url(#linear-gradient-2);}</style><linearGradient id="linear-gradient" x1="54.51" y1="60.08" x2="54.51" y2="63.17" gradientUnits="userSpaceOnUse"><stop offset="0" stop-color="#f59fb4"/><stop offset="1" stop-color="#2a3280"/></linearGradient><linearGradient id="linear-gradient-2" x1="100.3" y1="38.7" x2="100.3" y2="144.75" xlink:href="#linear-gradient"/></defs><rect class="cls-1" width="199.47" height="199.47" rx="26.77"/><polygon class="cls-2" points="54.5 61.63 54.51 61.63 54.5 61.63 54.5 61.63"/><path class="cls-3" d="M154.92,56.72l-.49-4.44-4.93.18c-15.33.5-37.84-8.68-50-18-12.07,8.87-33.94,18.5-48.86,18l-4.48-.17-.49,4.44a147.44,147.44,0,0,0,3,44.19C55.8,132,73.16,152.54,98.92,160.3l1.39.4,1.39-.4c25.73-7.76,43.09-28.29,50.22-59.39A147.05,147.05,0,0,0,154.92,56.72Zm-59.49.89a4.39,4.39,0,0,0,3.84-4.23l.28-9.61,1.31,9.56a4.39,4.39,0,0,0,4.27,3.8l9.47.19-9.43,1.2a4.4,4.4,0,0,0-3.85,4.23L101,72.36l-1.2-9.43a4.4,4.4,0,0,0-4.23-3.85L86,58.81Zm50.29,14.32c-.77,29.2-23,43.85-45.23,43.93l-.23-1.07-.27,1.07c-22.22-.14-44.33-14.78-45.1-43.94-.12-4,0-7.4.06-9.83,0,0-.05,0,0,0h0C75.91,61.46,94.47,76.24,97.36,97L100,115.86h.5l2.21-18.19c3.89-19.92,27.46-31.89,42.92-35.57h0C145.76,64.55,145.83,67.93,145.72,71.93Z" transform="translate(-0.45 -0.45)"/></svg>