<svg id="Layer_1" data-name="Layer 1" xmlns="http://www.w3.org/2000/svg" xmlns:xlink="http://www.w3.org/1999/xlink" viewBox="0 0 199.52 199.52"><defs><style>.cls-1{fill:#fff;}.cls-2{fill:url(#linear-gradient);}.cls-3{fill:#121212;}</style><linearGradient id="linear-gradient" x1="51.47" y1="92.09" x2="163.77" y2="92.09" gradientUnits="userSpaceOnUse"><stop offset="0" stop-color="#f06836"/><stop offset="1" stop-color="#dc1178"/></linearGradient></defs><rect class="cls-1" width="199.52" height="199.52" rx="26.77"/><path class="cls-2" d="M159.27,65.82c-.06-.19-.14-.39-.22-.58-5.93-15.67-15.54-28.31-29.93-34.35,0,0,0,0,0,0s-5.74,12.36-3.35,22c0,0-18.4-10.86-37.71,13.55,0,0-5.74,8.49-36.25,3.35,0,0-3.8,24.4,14.68,33.08A68.15,68.15,0,0,1,118,143.55a66,66,0,0,1,3.27,9.75,68.3,68.3,0,0,0,31.83-26.49q1.31-2,2.46-4.17h0a68.21,68.21,0,0,0,3.71-56.81ZM103.61,78.7a5,5,0,0,1-5-5,4.3,4.3,0,0,1,.3-1.64,4.94,4.94,0,0,1,4.68-3.36,5.08,5.08,0,0,1,5,5A5,5,0,0,1,103.61,78.7Z" transform="translate(-0.34 -0.24)"/><path class="cls-3" d="M74.65,128.66a45.72,45.72,0,0,0-8.58-9.7,3.36,3.36,0,0,1,3-5.82c14,3.54,33.71,13.43,45.44,40.72,0,0-65.73,15.63-79.1-41.59a3.37,3.37,0,0,1,5.78-3C48.57,117.42,60.62,127.84,74.65,128.66Z" transform="translate(-0.34 -0.24)"/></svg>