<svg id="Layer_1" data-name="Layer 1" xmlns="http://www.w3.org/2000/svg" xmlns:xlink="http://www.w3.org/1999/xlink" viewBox="0 0 199.84 199.84"><defs><style>.cls-1{fill:#fff;}.cls-2{fill:url(#linear-gradient);}</style><linearGradient id="linear-gradient" x1="84.02" y1="68.1" x2="129.12" y2="132.8" gradientUnits="userSpaceOnUse"><stop offset="0" stop-color="#f05537"/><stop offset="1" stop-color="#db2376"/></linearGradient></defs><rect class="cls-1" width="199.84" height="199.84" rx="26.77"/><path class="cls-2" d="M180.9,94.18a31.58,31.58,0,0,0-18.52-27.35A33.11,33.11,0,0,0,139,65a45.94,45.94,0,0,0-68.54.82,33.11,33.11,0,0,0-25.83,1A31.58,31.58,0,0,0,26.1,94.18c0,.62,0,1.25,0,1.87s0,1.25,0,1.87a31.61,31.61,0,0,0,18.53,27.36,33.14,33.14,0,0,0,25.84,1,46,46,0,0,0,68.55.81,32.89,32.89,0,0,0,23.36-1.82A31.6,31.6,0,0,0,180.9,97.92c0-.62,0-1.24,0-1.87S180.93,94.8,180.9,94.18ZM80.54,120.56,92.21,113a5.82,5.82,0,0,0,2.14-7.46,5.65,5.65,0,0,0-8.09-2.13L72.1,112.59l-.31.22a21.52,21.52,0,0,1-22.38,2.25,20.48,20.48,0,0,1-12-17.71c0-.43,0-.86,0-1.3s0-.87,0-1.3A20.48,20.48,0,0,1,49.41,77,21.5,21.5,0,0,1,71.79,79.3l40.36,30.29c8.92,6.71,4.37,21.09-6.79,21.17h-.26A34.9,34.9,0,0,1,80.54,120.56Zm89.1-23.21a20.52,20.52,0,0,1-12,17.71,21.52,21.52,0,0,1-22.38-2.25L97.41,84.42c-9.74-7.31-4.77-23,7.41-23.08h.28a34.81,34.81,0,0,1,23.26,9l-14,10.26a5.8,5.8,0,0,0-1.73,7.56,5.64,5.64,0,0,0,8.19,1.69L135.22,79.3A21.5,21.5,0,0,1,157.6,77a20.52,20.52,0,0,1,12,17.71c0,.43,0,.87,0,1.3S169.66,96.92,169.64,97.35Z" transform="translate(-0.08 -0.08)"/></svg>